<svg width="75" height="75" viewBox="0 0 75 75" fill="none" xmlns="http://www.w3.org/2000/svg">
<path d="M37.5 62.5H62.5V68.75H37.5C20.2406 68.75 6.25 54.7594 6.25 37.5C6.25 20.2406 20.2406 6.25 37.5 6.25C54.7594 6.25 68.75 20.2406 68.75 37.5C68.76 44.2632 66.5659 50.8454 62.5 56.25H54.0375C58.4258 52.3799 61.3177 47.0931 62.2095 41.3104C63.1013 35.5277 61.9365 29.6154 58.9181 24.603C55.8996 19.5906 51.2187 15.7957 45.6904 13.8792C40.1621 11.9626 34.1367 12.0459 28.6634 14.1144C23.1902 16.1829 18.6159 20.1056 15.737 25.1994C12.8581 30.2933 11.8571 36.2355 12.9083 41.9914C13.9595 47.7473 16.9963 52.9521 21.4898 56.6996C25.9833 60.447 31.6489 62.4996 37.5 62.5V62.5ZM37.5 31.25C35.8424 31.25 34.2527 30.5915 33.0806 29.4194C31.9085 28.2473 31.25 26.6576 31.25 25C31.25 23.3424 31.9085 21.7527 33.0806 20.5806C34.2527 19.4085 35.8424 18.75 37.5 18.75C39.1576 18.75 40.7473 19.4085 41.9194 20.5806C43.0915 21.7527 43.75 23.3424 43.75 25C43.75 26.6576 43.0915 28.2473 41.9194 29.4194C40.7473 30.5915 39.1576 31.25 37.5 31.25ZM25 43.75C23.3424 43.75 21.7527 43.0915 20.5806 41.9194C19.4085 40.7473 18.75 39.1576 18.75 37.5C18.75 35.8424 19.4085 34.2527 20.5806 33.0806C21.7527 31.9085 23.3424 31.25 25 31.25C26.6576 31.25 28.2473 31.9085 29.4194 33.0806C30.5915 34.2527 31.25 35.8424 31.25 37.5C31.25 39.1576 30.5915 40.7473 29.4194 41.9194C28.2473 43.0915 26.6576 43.75 25 43.75ZM50 43.75C48.3424 43.75 46.7527 43.0915 45.5806 41.9194C44.4085 40.7473 43.75 39.1576 43.75 37.5C43.75 35.8424 44.4085 34.2527 45.5806 33.0806C46.7527 31.9085 48.3424 31.25 50 31.25C51.6576 31.25 53.2473 31.9085 54.4194 33.0806C55.5915 34.2527 56.25 35.8424 56.25 37.5C56.25 39.1576 55.5915 40.7473 54.4194 41.9194C53.2473 43.0915 51.6576 43.75 50 43.75V43.75ZM37.5 56.25C35.8424 56.25 34.2527 55.5915 33.0806 54.4194C31.9085 53.2473 31.25 51.6576 31.25 50C31.25 48.3424 31.9085 46.7527 33.0806 45.5806C34.2527 44.4085 35.8424 43.75 37.5 43.75C39.1576 43.75 40.7473 44.4085 41.9194 45.5806C43.0915 46.7527 43.75 48.3424 43.75 50C43.75 51.6576 43.0915 53.2473 41.9194 54.4194C40.7473 55.5915 39.1576 56.25 37.5 56.25Z" fill="white"/>
</svg>
