<svg width="40" height="38" viewBox="0 0 40 38" fill="none" xmlns="http://www.w3.org/2000/svg">
<path d="M31.1137 37.9902C30.7932 37.9915 30.4771 37.9161 30.1918 37.7703L19.9699 32.4328L9.74809 37.7703C9.41617 37.9444 9.04194 38.0221 8.66794 37.9946C8.29394 37.9671 7.93517 37.8355 7.63243 37.6148C7.32968 37.394 7.0951 37.093 6.95535 36.7459C6.8156 36.3988 6.77629 36.0196 6.84188 35.6513L8.84616 24.3966L0.588517 16.4004C0.330882 16.144 0.148119 15.8224 0.059843 15.4703C-0.0284334 15.1181 -0.0188909 14.7486 0.0874464 14.4014C0.203615 14.0461 0.417304 13.7304 0.704265 13.4901C0.991226 13.2499 1.33997 13.0946 1.71092 13.042L13.1353 11.3828L18.1661 1.12768C18.3302 0.789703 18.5865 0.504665 18.9055 0.305223C19.2245 0.10578 19.5934 0 19.9699 0C20.3465 0 20.7154 0.10578 21.0344 0.305223C21.3534 0.504665 21.6097 0.789703 21.7738 1.12768L26.8647 11.3628L38.2891 13.022C38.66 13.0746 39.0088 13.2299 39.2957 13.4701C39.5827 13.7104 39.7964 14.0261 39.9126 14.3814C40.0189 14.7286 40.0284 15.0981 39.9402 15.4503C39.8519 15.8025 39.6691 16.124 39.4115 16.3804L31.1538 24.3766L33.1581 35.6313C33.2297 36.0061 33.1922 36.3935 33.0501 36.7477C32.9081 37.1019 32.6674 37.4082 32.3564 37.6304C31.9935 37.884 31.5565 38.0106 31.1137 37.9902Z" fill="#F2D129"/>
</svg>
